<svg width="71" height="20" viewBox="0 0 71 20" fill="none" xmlns="http://www.w3.org/2000/svg">
<path fill-rule="evenodd" clip-rule="evenodd" d="M0 2.85714C0 1.27919 1.27919 0 2.85714 0H17.1429C18.7208 0 20 1.27919 20 2.85714V17.1429C20 18.7208 18.7208 20 17.1429 20H2.85714C1.27919 20 0 18.7208 0 17.1429V2.85714ZM3.13988 4.63203V15.7143H6.0836V9.26406H6.17018L8.63772 15.6277H10.4126L12.8801 9.30735H12.9667V15.7143H15.9104V4.63203H12.1659L9.5901 10.9091H9.46023L6.88447 4.63203H3.13988ZM9.52381 5.71429C10.5758 5.71429 11.4286 4.8615 11.4286 3.80952C11.4286 2.75755 10.5758 1.90476 9.52381 1.90476C8.47184 1.90476 7.61905 2.75755 7.61905 3.80952C7.61905 4.8615 8.47184 5.71429 9.52381 5.71429Z" fill="#005FEC"/>
<path d="M25.2311 14.375H26.838V10.229C26.838 9.39009 27.3973 8.82191 28.0898 8.82191C28.769 8.82191 29.235 9.27912 29.235 9.98047V14.375H30.8109V10.1225C30.8109 9.35458 31.2681 8.82191 32.0449 8.82191C32.693 8.82191 33.2079 9.20366 33.2079 10.047V14.375H34.8192V9.79847C34.8192 8.27592 33.9403 7.46804 32.6885 7.46804C31.6986 7.46804 30.944 7.95632 30.6422 8.71537H30.5712C30.3093 7.943 29.6479 7.46804 28.729 7.46804C27.8146 7.46804 27.131 7.93856 26.8469 8.71537H26.767V7.55682H25.2311V14.375Z" fill="#18216D"/>
<path d="M39.4679 14.5082C41.057 14.5082 42.149 13.7314 42.4331 12.5462L40.9327 12.3775C40.7152 12.9545 40.1825 13.2564 39.4901 13.2564C38.4514 13.2564 37.7633 12.5728 37.75 11.4054H42.4997V10.9126C42.4997 8.52006 41.0614 7.46804 39.3835 7.46804C37.4304 7.46804 36.1564 8.90181 36.1564 11.0059C36.1564 13.1454 37.4126 14.5082 39.4679 14.5082ZM37.7544 10.3223C37.8033 9.45223 38.4469 8.71981 39.4057 8.71981C40.329 8.71981 40.9505 9.39453 40.9593 10.3223H37.7544Z" fill="#18216D"/>
<path d="M47.2637 7.55682H45.9187V5.92329H44.3118V7.55682H43.3442V8.79971H44.3118V12.5906C44.303 13.8734 45.2351 14.5037 46.4425 14.4682C46.8997 14.4549 47.2149 14.3661 47.388 14.3084L47.1172 13.0522C47.0285 13.0744 46.8465 13.1143 46.6467 13.1143C46.2428 13.1143 45.9187 12.9723 45.9187 12.3242V8.79971H47.2637V7.55682Z" fill="#18216D"/>
<path d="M52.0123 7.55682H50.6673V5.92329H49.0604V7.55682H48.0927V8.79971H49.0604V12.5906C49.0515 13.8734 49.9837 14.5037 51.1911 14.4682C51.6483 14.4549 51.9634 14.3661 52.1365 14.3084L51.8658 13.0522C51.777 13.0744 51.595 13.1143 51.3952 13.1143C50.9913 13.1143 50.6673 12.9723 50.6673 12.3242V8.79971H52.0123V7.55682Z" fill="#18216D"/>
<path d="M53.3561 14.375H54.963V7.55682H53.3561V14.375ZM54.164 6.58913C54.6745 6.58913 55.0918 6.19851 55.0918 5.7191C55.0918 5.23526 54.6745 4.84464 54.164 4.84464C53.6491 4.84464 53.2318 5.23526 53.2318 5.7191C53.2318 6.19851 53.6491 6.58913 54.164 6.58913Z" fill="#18216D"/>
<path d="M58.2223 10.38C58.2223 9.39453 58.8171 8.82635 59.665 8.82635C60.495 8.82635 60.9922 9.37233 60.9922 10.2823V14.375H62.5991V10.0337C62.6035 8.40021 61.6713 7.46804 60.2642 7.46804C59.2433 7.46804 58.5419 7.95632 58.2312 8.71537H58.1513V7.55682H56.6154V14.375H58.2223V10.38Z" fill="#18216D"/>
<path d="M67.1978 17.0739C69.04 17.0739 70.3983 16.2305 70.3983 14.486V7.55682H68.8136V8.6843H68.7248C68.4807 8.19158 67.9702 7.46804 66.7672 7.46804C65.1914 7.46804 63.953 8.70206 63.953 10.9437C63.953 13.1676 65.1914 14.2773 66.7628 14.2773C67.9302 14.2773 68.4762 13.6515 68.7248 13.1499H68.8047V14.4416C68.8047 15.4448 68.1389 15.8576 67.2244 15.8576C66.2568 15.8576 65.8306 15.4004 65.6353 15.0009L64.1882 15.3516C64.4812 16.3059 65.4622 17.0739 67.1978 17.0739ZM67.2111 13.0167C66.1502 13.0167 65.5909 12.191 65.5909 10.9348C65.5909 9.69638 66.1413 8.7864 67.2111 8.7864C68.2454 8.7864 68.8136 9.64311 68.8136 10.9348C68.8136 12.2354 68.2365 13.0167 67.2111 13.0167Z" fill="#18216D"/>
</svg>
